<?xml version="1.0" standalone="no"?>
<!DOCTYPE svg PUBLIC "-//W3C//DTD SVG 20010904//EN"
 "http://www.w3.org/TR/2001/REC-SVG-20010904/DTD/svg10.dtd">
<svg version="1.0" xmlns="http://www.w3.org/2000/svg"
 width="64.000000pt" height="44.000000pt" viewBox="0 0 64.000000 44.000000"
 preserveAspectRatio="xMidYMid meet">
<metadata>
Created by potrace 1.11, written by Peter Selinger 2001-2013
</metadata>
<g transform="translate(0.000000,44.000000) scale(0.100000,-0.100000)"
fill="#000000" stroke="none">
<path d="M0 230 l0 -210 313 2 312 3 3 208 2 207 -315 0 -315 0 0 -210z m200
135 c0 -23 -4 -25 -45 -25 -39 0 -45 -3 -51 -25 -7 -28 19 -77 39 -74 38 5 57
-2 57 -21 0 -15 -7 -20 -27 -20 -41 0 -52 -12 -66 -66 -11 -47 -14 -49 -49
-51 -36 -3 -37 -2 -29 19 17 42 24 63 28 82 2 10 7 25 12 34 7 12 3 22 -15 39
-15 13 -24 33 -24 51 0 54 39 81 118 82 49 0 52 -1 52 -25z m90 -130 l0 -155
-35 0 -35 0 0 155 0 155 35 0 35 0 0 -155z m120 0 l0 -155 -35 0 -35 0 0 155
0 155 35 0 35 0 0 -155z m154 134 c33 -26 37 -86 6 -114 -13 -11 -18 -25 -14
-34 3 -9 14 -44 24 -78 16 -54 17 -63 4 -63 -8 0 -12 5 -9 11 4 6 -3 5 -14 -3
-26 -16 -36 -5 -46 51 -9 49 -22 61 -61 61 -27 0 -34 4 -34 20 0 18 21 26 53
21 4 -1 17 4 28 10 16 8 19 19 17 47 -3 35 -5 37 -43 40 -46 4 -60 14 -52 36
10 25 107 22 141 -5z"/>
</g>
</svg>
